 <svg version="1.0" xmlns="http://www.w3.org/2000/svg"  width="300.000000pt" height="300.000000pt" viewBox="0 0 300.000000 300.000000"  preserveAspectRatio="xMidYMid meet">  <g transform="translate(0.000000,300.000000) scale(0.100000,-0.100000)" fill="#000000" stroke="none"> <path d="M1380 2978 c-582 -38 -1106 -449 -1288 -1008 -59 -182 -67 -240 -67 -515 0 -288 3 -308 88 -495 137 -304 278 -485 515 -662 141 -105 372 -216 372 -179 0 6 -6 11 -14 11 -8 0 -16 7 -20 15 -3 8 -17 15 -30 15 -32 0 -62 13 -166 74 -124 72 -182 118 -301 236 -88 88 -189 207 -189 223 0 3 -18 32 -40 65 -22 33 -40 64 -40 70 0 6 17 0 37 -14 52 -36 135 -76 218 -107 78 -28 105 -35 184 -42 30 -3 57 -8 60 -11 4 -3 -6 -16 -21 -29 -15 -13 -24 -25 -20 -27 9 -4 42 -108 42 -131 0 -10 5 -17 10 -17 6 0 10 -6 10 -13 0 -19 24 -67 34 -67 4 0 5 8 1 17 -4 10 -24 63 -44 119 l-37 100 29 27 c25 23 38 27 110 30 l82 3 -95 2 c-162 4 -281 30 -443 97 -118 50 -182 106 -224 197 -34 72 -62 145 -68 177 -17 94 -25 173 -27 261 -3 147 3 293 12 305 4 6 10 30 13 55 3 25 8 54 10 65 3 11 8 34 12 50 4 17 10 39 15 50 4 11 13 40 20 65 14 54 119 270 132 270 4 0 8 6 8 13 0 20 56 98 65 90 4 -5 5 -3 2 3 -9 16 139 181 225 251 130 106 290 205 378 233 14 5 63 22 110 39 47 17 95 31 107 31 12 0 25 5 28 10 4 6 10 8 13 6 4 -2 35 1 67 8 126 26 341 27 485 1 14 -2 41 -6 60 -9 64 -9 323 -100 351 -123 8 -7 19 -13 23 -13 19 0 206 -123 252 -165 6 -5 38 -34 72 -64 34 -30 58 -59 55 -65 -3 -6 -3 -8 2 -4 4 4 32 -23 62 -60 29 -37 59 -74 66 -82 60 -74 184 -315 194 -377 3 -19 10 -36 14 -39 5 -3 9 -15 9 -28 0 -12 3 -26 7 -30 4 -3 8 -17 10 -29 1 -12 7 -40 13 -62 20 -84 24 -155 22 -450 -1 -33 -1 -64 -1 -70 0 -5 -9 -71 -20 -145 -19 -130 -45 -227 -66 -242 -5 -4 -6 -8 -2 -8 9 0 -33 -82 -69 -137 -12 -18 -25 -29 -29 -25 -5 4 -5 2 -1 -5 10 -18 -54 -89 -213 -233 -98 -88 -112 -97 -216 -138 -122 -48 -197 -63 -360 -69 -132 -5 -160 -3 -234 16 -149 38 -239 88 -289 163 -23 35 -26 51 -26 112 1 83 16 113 78 157 46 34 42 38 -8 8 -19 -11 -44 -36 -56 -56 -27 -45 -36 -138 -20 -189 24 -74 148 -166 264 -195 27 -7 43 -16 39 -22 -3 -5 -1 -7 4 -4 17 11 103 -4 96 -16 -3 -6 -1 -7 5 -3 6 3 71 8 144 11 144 4 284 34 386 80 50 23 75 18 30 -6 -13 -7 -25 -15 -28 -19 -8 -12 -140 -90 -140 -83 0 3 -8 -1 -17 -10 -41 -36 -225 -106 -373 -141 -167 -40 -369 -48 -550 -22 -58 9 -108 16 -112 16 -4 0 -5 6 -2 14 4 10 -14 19 -62 32 l-67 18 -24 -28 c-13 -16 -23 -35 -21 -44 5 -27 54 -36 105 -19 41 14 53 13 142 -5 73 -16 135 -21 256 -21 193 -1 310 18 480 75 268 90 393 177 706 488 153 152 240 323 275 539 23 143 24 527 2 646 -83 435 -352 813 -736 1032 -41 23 -84 45 -96 49 -11 4 -26 10 -32 15 -6 5 -65 27 -130 48 -189 62 -368 84 -584 69z m-240 -2891 c0 -6 -3 -8 -6 -4 -4 3 -13 0 -21 -8 -8 -8 -31 -15 -52 -15 -35 0 -38 2 -34 24 3 14 13 27 22 28 24 6 91 -13 91 -25z"></path> <path d="M1025 2765 c-130 -22 -240 -64 -332 -126 -79 -55 -90 -77 -50 -104 22 -14 28 -14 69 5 119 52 287 83 468 84 l95 1 3 34 c9 96 -83 135 -253 106z m175 -19 c44 -17 60 -38 60 -73 l0 -33 -119 0 c-128 0 -247 -18 -351 -53 -36 -11 -67 -22 -70 -22 -3 0 -15 -6 -28 -13 -26 -15 -42 -8 -42 18 0 33 140 113 265 154 104 33 234 43 285 22z"></path> <path d="M1815 2771 c-51 -13 -76 -31 -92 -68 -8 -20 -12 -46 -9 -59 6 -23 9 -24 114 -23 172 2 317 -23 444 -77 45 -19 63 -22 78 -14 94 50 -136 193 -377 235 -92 16 -112 17 -158 6z m233 -42 c46 -11 91 -24 100 -29 9 -5 42 -21 72 -35 30 -14 72 -38 93 -52 44 -31 50 -63 12 -63 -14 0 -25 5 -25 10 0 6 -10 10 -23 10 -13 0 -27 3 -31 7 -3 4 -12 8 -19 9 -7 1 -41 9 -77 19 -108 28 -170 36 -291 35 -125 0 -131 3 -120 50 4 17 21 33 51 48 38 19 55 22 110 17 36 -4 102 -15 148 -26z"></path> <path d="M880 2483 c-35 -13 -71 -47 -95 -87 -53 -91 -58 -238 -9 -296 l25 -29 37 19 c45 24 184 66 246 75 52 8 61 23 51 88 -17 110 -62 189 -126 223 -28 14 -100 18 -129 7z m126 -28 c45 -21 83 -85 98 -166 16 -84 11 -92 -64 -109 -30 -7 -91 -25 -135 -41 -98 -34 -110 -36 -112 -25 -1 5 -7 12 -15 17 -17 11 -19 186 -1 197 6 4 11 16 10 26 -1 10 5 21 13 24 11 3 12 2 4 -8 -15 -15 9 -65 38 -81 46 -25 120 47 101 98 -15 41 -38 60 -61 52 -12 -5 -22 -6 -22 -2 0 3 -8 0 -18 -8 -10 -8 -5 -2 11 12 33 31 103 37 153 14z m-84 -49 c26 -38 -7 -106 -51 -106 -33 0 -51 16 -51 48 0 63 71 103 102 58z"></path> <path d="M1985 2473 c-54 -29 -98 -98 -116 -184 -34 -156 59 -248 241 -237 74 4 99 18 128 73 36 68 14 221 -42 298 -44 61 -146 85 -211 50z m130 -13 c4 -6 10 -8 15 -5 10 6 92 -90 83 -98 -3 -4 -1 -13 6 -20 6 -8 8 -23 4 -32 -3 -10 -2 -16 3 -13 11 7 12 -112 1 -129 -5 -7 -5 -17 -2 -23 3 -5 1 -10 -5 -10 -6 0 -8 -5 -4 -12 5 -8 2 -9 -9 -5 -9 3 -19 1 -23 -5 -4 -7 -3 -8 4 -4 7 4 12 3 12 -2 0 -26 -99 -47 -150 -31 -19 5 -48 12 -63 14 -81 12 -118 83 -99 193 6 37 15 68 21 70 5 2 8 9 5 16 -3 7 1 18 9 25 12 9 15 4 20 -30 6 -46 19 -59 60 -59 33 0 72 38 80 76 7 40 -18 82 -48 78 -14 -1 -23 2 -19 7 7 12 91 11 99 -1z m-61 -36 c49 -49 -23 -137 -80 -99 -31 20 -31 55 1 89 27 29 56 33 79 10z"></path> <path d="M1188 2193 c7 -3 16 -2 19 1 4 3 -2 6 -13 5 -11 0 -14 -3 -6 -6z"></path> <path d="M1228 2193 c7 -3 16 -2 19 1 4 3 -2 6 -13 5 -11 0 -14 -3 -6 -6z"></path> <path d="M1278 2193 c6 -2 18 -2 25 0 6 3 1 5 -13 5 -14 0 -19 -2 -12 -5z"></path> <path d="M1320 2166 c0 -2 13 -6 29 -8 17 -2 28 -1 25 4 -5 8 -54 12 -54 4z"></path> <path d="M1461 2136 c4 -4 21 -11 39 -16 19 -5 29 -6 24 -1 -10 10 -72 26 -63 17z"></path> <path d="M1540 2106 c0 -2 7 -7 16 -10 8 -3 12 -2 9 4 -6 10 -25 14 -25 6z"></path> <path d="M1810 2096 c0 -2 7 -7 16 -10 8 -3 12 -2 9 4 -6 10 -25 14 -25 6z"></path> <path d="M1610 2070 c8 -5 20 -10 25 -10 6 0 3 5 -5 10 -8 5 -19 10 -25 10 -5 0 -3 -5 5 -10z"></path> <path d="M1716 2031 c-4 -6 2 -19 12 -29 11 -11 22 -26 25 -33 8 -20 39 20 35 46 -2 14 -12 21 -35 23 -17 2 -34 -1 -37 -7z m54 -27 c0 -14 -3 -14 -15 -4 -8 7 -15 14 -15 16 0 2 7 4 15 4 8 0 15 -7 15 -16z"></path> <path d="M1398 1993 c12 -2 32 -2 45 0 12 2 2 4 -23 4 -25 0 -35 -2 -22 -4z"></path> <path d="M1336 1981 c-4 -5 3 -7 14 -4 23 6 26 13 6 13 -8 0 -17 -4 -20 -9z"></path> <path d="M1496 1979 c45 -13 128 -91 153 -144 40 -85 22 -184 -45 -252 -27 -27 -55 -44 -78 -48 -32 -7 -52 -25 -26 -25 21 0 93 42 118 68 61 65 80 177 43 257 -32 72 -127 156 -173 154 -19 -1 -17 -3 8 -10z"></path> <path d="M1264 1936 c-29 -24 -46 -50 -57 -87 -10 -29 -15 -54 -13 -57 3 -2 10 16 16 39 8 31 27 58 61 92 57 54 52 63 -7 13z"></path> <path d="M1839 1953 c-13 -16 -12 -17 4 -4 9 7 17 15 17 17 0 8 -8 3 -21 -13z"></path> <path d="M1794 1887 c-3 -9 -4 -24 -2 -34 3 -16 5 -15 17 6 9 16 10 26 2 34 -7 7 -12 6 -17 -6z"></path> <path d="M812 1860 c-64 -15 -138 -81 -163 -147 -16 -42 -28 -113 -18 -107 5 3 9 17 9 32 1 35 30 98 65 140 40 48 94 72 162 73 42 0 52 3 38 9 -24 10 -49 10 -93 0z"></path> <path d="M930 1851 c0 -5 10 -11 23 -15 31 -7 90 -65 110 -109 22 -45 22 -155 2 -205 -28 -65 -119 -141 -172 -143 -26 0 -26 -1 -6 -9 24 -10 65 -2 57 11 -3 5 4 9 16 9 12 0 18 5 15 10 -3 6 0 10 8 10 15 0 62 54 90 103 12 23 17 54 17 107 0 89 -20 140 -74 188 -37 34 -86 58 -86 43z"></path> <path d="M1381 1814 c-25 -20 -31 -34 -31 -64 0 -30 6 -44 31 -64 50 -42 105 -32 135 25 20 39 11 82 -23 109 -35 27 -75 25 -112 -6z m54 -28 c0 -27 -29 -43 -49 -27 -12 10 -13 18 -5 33 13 25 54 21 54 -6z m53 2 c17 -17 15 -58 -5 -80 -20 -22 -66 -24 -83 -3 -11 13 -8 20 4 13 10 -6 56 47 56 64 0 21 11 23 28 6z"></path> <path d="M1201 1736 c-1 -32 44 -122 74 -149 44 -39 102 -65 155 -71 l55 -6 -60 15 c-32 9 -78 26 -101 40 -47 28 -99 101 -113 160 -8 35 -9 36 -10 11z"></path> <path d="M1812 1750 c0 -8 4 -26 8 -40 6 -20 8 -21 8 -5 0 11 -3 29 -8 40 -5 12 -8 14 -8 5z"></path> <path d="M412 1708 c-18 -18 -15 -46 7 -58 29 -15 36 -13 37 13 0 12 2 29 5 37 5 19 -32 25 -49 8z m24 -35 c-10 -10 -19 5 -10 18 6 11 8 11 12 0 2 -7 1 -15 -2 -18z"></path> <path d="M818 1685 c-54 -30 -57 -113 -6 -149 88 -62 185 58 109 135 -32 32 -62 36 -103 14z m86 -20 c8 -22 -4 -45 -24 -45 -23 0 -42 24 -34 44 8 20 50 21 58 1z m-34 -68 c11 -3 23 -1 26 4 9 16 24 10 24 -11 0 -38 -68 -54 -102 -23 -17 15 -25 63 -12 76 4 3 15 -4 25 -17 10 -13 28 -26 39 -29z"></path> <path d="M1832 1660 c0 -14 2 -19 5 -12 2 6 2 18 0 25 -3 6 -5 1 -5 -13z"></path> <path d="M629 1548 c20 -87 110 -179 173 -178 17 1 13 4 -15 14 -78 28 -147 110 -147 174 0 12 -4 22 -9 22 -5 0 -6 -15 -2 -32z"></path> <path d="M1853 1545 c0 -22 2 -30 4 -17 2 12 2 30 0 40 -3 9 -5 -1 -4 -23z"></path> <path d="M1149 1489 c-13 -13 -19 -30 -17 -47 3 -23 8 -27 40 -30 43 -4 106 20 115 44 18 46 -97 74 -138 33z m101 -19 c11 -7 9 -11 -13 -19 -40 -16 -77 -14 -77 3 0 22 62 34 90 16z"></path> <path d="M1331 1468 c37 -34 41 -53 16 -76 -15 -14 -40 -21 -82 -24 -33 -2 -75 -12 -94 -21 -40 -20 -61 -22 -61 -4 0 8 -4 7 -10 -3 -15 -24 38 -29 80 -8 19 10 55 18 80 18 32 0 56 7 83 25 51 36 49 74 -7 101 l-31 16 26 -24z"></path> <path d="M2613 1445 c0 -8 4 -12 9 -9 5 3 6 10 3 15 -9 13 -12 11 -12 -6z"></path> <path d="M1075 1430 c-3 -6 1 -13 9 -16 9 -3 16 -16 17 -28 0 -11 3 -15 6 -8 3 7 1 20 -3 30 -4 9 -6 20 -6 25 3 11 -16 9 -23 -3z"></path> <path d="M1018 1403 c7 -3 16 -2 19 1 4 3 -2 6 -13 5 -11 0 -14 -3 -6 -6z"></path> <path d="M1882 1390 c0 -14 2 -19 5 -12 2 6 2 18 0 25 -3 6 -5 1 -5 -13z"></path> <path d="M1911 1384 c0 -11 3 -14 6 -6 3 7 2 16 -1 19 -3 4 -6 -2 -5 -13z"></path> <path d="M568 1363 c7 -3 16 -2 19 1 4 3 -2 6 -13 5 -11 0 -14 -3 -6 -6z"></path> <path d="M2557 1353 c-4 -3 -7 -11 -7 -17 0 -6 5 -5 12 2 6 6 9 14 7 17 -3 3 -9 2 -12 -2z"></path> <path d="M788 1343 c7 -3 16 -2 19 1 4 3 -2 6 -13 5 -11 0 -14 -3 -6 -6z"></path> <path d="M1321 1309 c-1 -32 -17 -47 -60 -55 -19 -4 -28 -10 -21 -14 6 -4 27 0 46 9 34 15 51 46 41 73 -3 7 -6 1 -6 -13z"></path> <path d="M1901 1314 c0 -11 3 -14 6 -6 3 7 2 16 -1 19 -3 4 -6 -2 -5 -13z"></path> <path d="M1155 1270 c2 -14 5 -28 5 -31 0 -4 12 -9 26 -12 l26 -5 -25 22 c-14 11 -28 28 -31 36 -3 8 -4 4 -1 -10z"></path> <path d="M2517 1283 c-4 -3 -7 -11 -7 -17 0 -6 5 -5 12 2 6 6 9 14 7 17 -3 3 -9 2 -12 -2z"></path> <path d="M2489 1233 c-13 -16 -12 -17 4 -4 16 13 21 21 13 21 -2 0 -10 -8 -17 -17z"></path> <path d="M2427 1152 c-15 -15 -27 -32 -27 -38 0 -5 14 6 30 25 28 32 34 41 27 41 -2 0 -15 -13 -30 -28z"></path> <path d="M2375 1100 c-3 -5 -1 -10 4 -10 6 0 11 5 11 10 0 6 -2 10 -4 10 -3 0 -8 -4 -11 -10z"></path> <path d="M1970 1071 c-13 -25 -13 -41 0 -41 6 0 9 3 9 8 -7 43 26 42 48 -2 9 -19 13 -41 10 -50 -8 -21 -43 -20 -56 2 -6 9 -10 13 -11 7 0 -18 15 -33 35 -35 45 -5 48 -2 42 45 -7 70 -53 109 -77 66z"></path> <path d="M2325 1054 c-19 -15 -22 -21 -9 -15 18 9 52 41 43 41 -2 0 -17 -12 -34 -26z"></path> <path d="M2242 1009 c-23 -11 -75 -29 -115 -39 -40 -10 -63 -19 -52 -19 44 -2 215 58 215 74 0 6 4 7 -48 -16z"></path> <path d="M1768 998 c5 -5 16 -8 23 -6 8 3 3 7 -10 11 -17 4 -21 3 -13 -5z"></path> <path d="M1918 963 c6 -2 18 -2 25 0 6 3 1 5 -13 5 -14 0 -19 -2 -12 -5z"></path> <path d="M1327 917 l-17 -32 20 24 c17 20 26 41 18 41 -2 0 -11 -15 -21 -33z"></path> <path d="M1630 865 c13 -14 26 -25 28 -25 3 0 -5 11 -18 25 -13 14 -26 25 -28 25 -3 0 5 -11 18 -25z"></path> <path d="M1295 869 c-4 -6 -5 -12 -2 -15 2 -3 7 2 10 11 7 17 1 20 -8 4z"></path> <path d="M1235 840 c-3 -6 1 -7 9 -4 18 7 21 14 7 14 -6 0 -13 -4 -16 -10z"></path> <path d="M1240 812 c-73 -60 -159 -101 -270 -128 l-55 -14 48 5 c67 7 192 60 260 112 50 39 65 53 54 53 -1 0 -18 -13 -37 -28z"></path> <path d="M1670 835 c0 -3 12 -11 28 -17 l27 -11 -44 -8 c-24 -5 -47 -11 -50 -15 -3 -3 14 -3 39 2 25 4 55 7 68 7 30 -1 28 2 -18 26 -43 22 -50 24 -50 16z"></path> <path d="M1588 773 c6 -2 18 -2 25 0 6 3 1 5 -13 5 -14 0 -19 -2 -12 -5z"></path> <path d="M760 350 c0 -5 5 -10 11 -10 5 0 7 5 4 10 -3 6 -8 10 -11 10 -2 0 -4 -4 -4 -10z"></path> <path d="M1755 220 c-13 -5 -14 -9 -5 -9 8 0 24 4 35 9 13 5 14 9 5 9 -8 0 -24 -4 -35 -9z"></path> <path d="M1625 170 c-3 -5 1 -10 10 -10 9 0 13 5 10 10 -3 6 -8 10 -10 10 -2 0 -7 -4 -10 -10z"></path> <path d="M1348 133 c12 -2 30 -2 40 0 9 3 -1 5 -23 4 -22 0 -30 -2 -17 -4z"></path> <path d="M1243 123 c9 -2 25 -2 35 0 9 3 1 5 -18 5 -19 0 -27 -2 -17 -5z"></path> <path d="M1378 113 c7 -3 16 -2 19 1 4 3 -2 6 -13 5 -11 0 -14 -3 -6 -6z"></path> </g> </svg> 